<?xml version="1.0" encoding="UTF-8"?>
<svg class="external-icon" display="block" pointer-events="none" style="height:100%;width:100%" focusable="false" version="1.1" viewBox="0 0 90 20" xml:space="preserve" xmlns="http://www.w3.org/2000/svg"><path d="m27.973 3.1232c-0.3292-1.23-1.2959-2.1966-2.5259-2.5259-2.2271-0.59737-11.162-0.59737-11.162-0.59737s-8.9346 2.2429e-7 -11.162 0.59737c-1.23 0.32926-2.1966 1.2959-2.5259 2.5259-0.59737 2.2272-0.59737 6.8768-0.59737 6.8768s2.2429e-7 4.6496 0.59737 6.8768c0.32926 1.23 1.2959 2.1966 2.5259 2.5258 2.2272 0.5974 11.162 0.5974 11.162 0.5974s8.9347 0 11.162-0.5974c1.23-0.3292 2.1967-1.2958 2.5259-2.5258 0.5974-2.2272 0.5974-6.8768 0.5974-6.8768s-0.0024-4.6496-0.5974-6.8768z" fill="#f00"/><g transform="matrix(.35702 0 0 .35702 7.8586 3.5734)"><path d="m33.541 23.198c0.364-1.578 0.243-3.266-0.458-4.946-0.678-1.625-1.847-2.91-3.271-3.773 0.318-1.192 0.234-2.475-0.324-3.75-0.841-1.92-2.66-3.201-4.712-3.562 0.249-0.572 0.329-1.289 0.036-2.167-1-3-5-1-8-4.999-2.44 1.464-2.97 3.64-2.878 5.487-2.421 0.412-3.8 0.936-3.8 0.936v2e-3c-1.36 0.55-2.322 1.883-2.322 3.442 0 0.879 0.318 1.676 0.828 2.312l-0.692 0.258 1e-3 3e-3c-2.33 0.871-3.975 2.976-3.975 5.439 0 1.047 0.3 2.027 0.82 2.878-2.823 1.269-4.794 4.023-4.794 7.242 0 4.418 3.691 8 8.244 8 3.269 0 6.559-0.703 9.531-1.665 2.243 1.04 5.695 1.665 10.892 1.665 4.05 0 7.333-3.283 7.333-7.333 0-2.176-0.953-4.125-2.459-5.469z" fill="#bf6952"/><ellipse cx="13.5" cy="15.5" rx="3.5" ry="4.5" fill="#f5f8fa"/><ellipse cx="23.5" cy="15.5" rx="3.5" ry="4.5" fill="#f5f8fa"/><g fill="#292f33"><ellipse cx="14" cy="15.5" rx="2" ry="2.5"/><ellipse cx="23" cy="15.5" rx="2" ry="2.5"/><path d="m9.447 24.895c-0.246-0.493 3e-3 -0.895 0.553-0.895h18c0.55 0 0.799 0.402 0.553 0.895 0 0-2.553 5.105-9.553 5.105s-9.553-5.105-9.553-5.105z"/></g><path d="m19 26c-2.771 0-5.157 0.922-6.292 2.256 1.492 0.955 3.545 1.744 6.292 1.744s4.801-0.789 6.292-1.744c-1.135-1.334-3.521-2.256-6.292-2.256z" fill="#f2abba"/></g><g transform="matrix(1.0824 0 0 1.0824 -5.5353 -28.609)" fill="#fff" style="shape-inside:url(#rect400);white-space:pre" aria-label="YouPoop"><path d="m38.977 35.776v3.3867h-1.7227v-3.3867l-2.9414-4.8691h1.8105l1.9805 3.4922 2.0039-3.4922h1.8105z"/><path d="m48.082 35.987q0 1.541-0.85547 2.4199-0.85547 0.87305-2.3672 0.87305-1.4824 0-2.3262-0.87891t-0.84375-2.4141q0-1.5293 0.84375-2.4023 0.84375-0.87891 2.3613-0.87891 1.5527 0 2.3672 0.84961 0.82031 0.84375 0.82031 2.4316zm-1.7227 0q0-1.1309-0.36914-1.6406-0.36914-0.50977-1.0723-0.50977-1.5 0-1.5 2.1504 0 1.0605 0.36328 1.6172 0.36914 0.55078 1.0605 0.55078 1.5176 0 1.5176-2.168z"/><path d="m50.941 32.823v3.5566q0 1.6699 1.125 1.6699 0.59766 0 0.96094-0.50977 0.36914-0.51562 0.36914-1.3184v-3.3984h1.6465v4.9219q0 0.80859 0.04687 1.418h-1.5703q-0.07031-0.84375-0.07031-1.2598h-0.0293q-0.32812 0.7207-0.83789 1.0488-0.50391 0.32812-1.2012 0.32812-1.0078 0-1.5469-0.61523-0.53906-0.62109-0.53906-1.8164v-4.0254z"/><path d="m63.475 33.52q0 0.79688-0.36328 1.4238t-1.043 0.97266q-0.67383 0.33984-1.6055 0.33984h-2.0508v2.9062h-1.7285v-8.2559h3.709q1.4824 0 2.2793 0.68555 0.80273 0.67969 0.80273 1.9277zm-1.7402 0.0293q0-1.3008-1.5352-1.3008h-1.7871v2.6777h1.834q0.71484 0 1.1016-0.35156 0.38672-0.35742 0.38672-1.0254z"/><path d="m70.746 35.987q0 1.541-0.85547 2.4199-0.85547 0.87305-2.3672 0.87305-1.4824 0-2.3262-0.87891t-0.84375-2.4141q0-1.5293 0.84375-2.4023 0.84375-0.87891 2.3613-0.87891 1.5527 0 2.3672 0.84961 0.82031 0.84375 0.82031 2.4316zm-1.7227 0q0-1.1309-0.36914-1.6406-0.36914-0.50977-1.0723-0.50977-1.5 0-1.5 2.1504 0 1.0605 0.36328 1.6172 0.36914 0.55078 1.0605 0.55078 1.5176 0 1.5176-2.168z"/><path d="m78.076 35.987q0 1.541-0.85547 2.4199-0.85547 0.87305-2.3672 0.87305-1.4824 0-2.3262-0.87891t-0.84375-2.4141q0-1.5293 0.84375-2.4023 0.84375-0.87891 2.3613-0.87891 1.5527 0 2.3672 0.84961 0.82031 0.84375 0.82031 2.4316zm-1.7227 0q0-1.1309-0.36914-1.6406-0.36914-0.50977-1.0723-0.50977-1.5 0-1.5 2.1504 0 1.0605 0.36328 1.6172 0.36914 0.55078 1.0605 0.55078 1.5176 0 1.5176-2.168z"/><path d="m85.383 35.963q0 1.5879-0.63867 2.4551-0.63281 0.86133-1.793 0.86133-0.66797 0-1.166-0.28711-0.49219-0.29297-0.75586-0.83789h-0.03516q0.03516 0.17578 0.03516 1.0664v2.4316h-1.6465v-7.3711q0-0.89648-0.04687-1.459h1.5996q0.0293 0.10547 0.04687 0.41602 0.02344 0.31055 0.02344 0.61523h0.02344q0.55664-1.166 2.0273-1.166 1.1074 0 1.7168 0.85547 0.60938 0.84961 0.60938 2.4199zm-1.7168 0q0-2.1328-1.3066-2.1328-0.65625 0-1.0078 0.57422-0.3457 0.57422-0.3457 1.6055 0 1.0254 0.3457 1.5879 0.35156 0.55664 0.99609 0.55664 1.3184 0 1.3184-2.1914z"/></g></svg>
